<svg width="165" height="415" viewBox="0 0 165 415" fill="none" xmlns="http://www.w3.org/2000/svg">
<path fill-rule="evenodd" clip-rule="evenodd" d="M140.514 32.1148C132.514 33.9148 122.414 32.4148 117.914 25.3148C117.014 23.8148 115.314 19.1148 118.714 19.1148C119.514 19.1148 120.314 19.3148 121.114 19.3148C129.114 19.0148 136.314 9.91478 130.014 3.31478C126.414 -0.385216 120.114 -0.785216 115.414 1.11478C106.914 4.91478 104.314 14.0148 106.814 22.1148C110.714 33.0148 122.214 39.1148 134.014 38.2148C144.414 37.4148 154.714 33.4148 163.814 33.8148C166.614 33.8148 153.314 29.2148 140.514 32.1148Z" fill="black"/>
<path fill-rule="evenodd" clip-rule="evenodd" d="M119.613 67.0148C122.013 64.0148 127.613 62.4148 130.013 58.8148C130.913 57.5148 131.813 56.1148 132.313 54.6148C132.913 53.0148 133.313 51.4148 133.813 49.8148C134.913 47.0148 136.313 44.7148 139.013 42.9148C140.013 42.3148 141.113 41.8148 142.513 41.4148C140.613 41.6148 138.913 41.8148 137.313 42.0148C131.313 43.1148 124.913 45.0148 120.613 49.4148C117.513 52.8148 116.513 57.2148 117.413 61.6148C117.813 63.4148 118.413 65.4148 119.613 67.0148Z" fill="black"/>
<path fill-rule="evenodd" clip-rule="evenodd" d="M135.214 43.8149C133.014 45.4149 130.714 46.9149 129.114 49.1149C128.714 49.7149 128.314 50.4149 128.014 51.0149C127.514 52.1149 127.214 53.3149 126.614 54.3149C125.414 56.5149 127.014 52.3149 126.214 52.2149C124.514 52.2149 124.214 57.6149 122.414 58.4149L124.214 51.3149C123.614 51.6149 123.014 51.9149 122.514 52.3149L120.914 53.3149C120.914 52.9149 121.014 52.8149 121.214 52.5149C122.114 51.0149 124.314 50.2149 125.814 49.4149C126.514 49.0149 127.214 48.6149 127.814 48.1149C130.214 46.3149 132.614 44.9149 135.214 43.8149Z" fill="black"/>
<path fill-rule="evenodd" clip-rule="evenodd" d="M112.613 5.31482C114.313 3.81482 116.313 2.71482 118.613 2.21482C120.213 1.91482 121.913 1.91482 123.513 2.31482C124.113 2.41482 124.613 2.61482 125.113 2.81482C126.613 3.41482 128.013 4.41482 128.913 5.81482C128.913 5.91482 129.013 6.01482 129.013 6.01482C129.313 6.51482 129.513 7.01482 129.713 7.61482C129.813 8.11482 129.913 8.71482 129.913 9.31482C129.913 8.81482 129.713 8.21482 129.413 7.81482C129.113 7.41482 128.713 7.01482 128.313 6.71482C128.213 6.71482 128.213 6.61482 128.113 6.51482C127.013 5.71482 125.713 5.01482 124.413 4.51482C124.013 4.31482 123.513 4.11482 123.113 3.91482C121.713 3.41482 120.313 3.11482 118.813 3.11482C116.413 3.01482 114.313 3.81482 112.613 5.31482Z" fill="black"/>
<path fill-rule="evenodd" clip-rule="evenodd" d="M89.4145 56.8149C93.3145 55.0149 99.7145 55.5149 104.015 53.2149C105.615 52.4149 107.215 51.5149 108.515 50.4149C109.915 49.3149 111.215 48.0149 112.615 46.9149C115.215 44.9149 117.815 43.4149 121.415 42.8149C122.715 42.6149 124.115 42.5149 125.615 42.6149C123.715 42.1149 121.915 41.7149 120.115 41.4149C113.615 40.4149 106.315 39.9149 99.7145 42.3149C94.9145 44.2149 91.5145 47.6149 90.1145 51.5149C89.5145 53.2149 89.1145 55.1149 89.4145 56.8149Z" fill="black"/>
<path fill-rule="evenodd" clip-rule="evenodd" d="M117.214 42.3149C114.214 42.9149 111.114 43.4149 108.414 44.8149C107.614 45.2149 106.914 45.6149 106.314 46.1149C105.214 46.9149 104.314 47.8149 103.214 48.4149C100.814 49.9149 104.614 46.9149 103.914 46.5149C102.214 46.0149 99.0141 50.4149 96.9141 50.5149L102.414 45.1149C101.614 45.1149 100.914 45.3149 100.214 45.4149L98.0141 45.8149C98.2141 45.5149 98.4141 45.4149 98.7141 45.2149C100.414 44.2149 103.014 44.2149 104.914 44.0149C105.814 43.9149 106.714 43.8149 107.614 43.5149C110.814 42.8149 113.914 42.4149 117.214 42.3149Z" fill="black"/>
<path fill-rule="evenodd" clip-rule="evenodd" d="M22.8145 33.5149C48.1145 32.3149 82.9144 21.4149 106.714 33.5149C82.9144 45.6149 48.2145 34.6149 22.8145 33.5149Z" fill="black"/>
<path fill-rule="evenodd" clip-rule="evenodd" d="M22.8145 33.5149C50.3145 33.9149 79.3144 37.8149 106.714 33.5149C79.4144 29.2149 50.3145 33.1149 22.8145 33.5149Z" fill="black"/>
<path fill-rule="evenodd" clip-rule="evenodd" d="M2.91399 83.3148C9.01399 91.6148 19.714 92.6148 28.014 87.7148C40.314 79.9148 43.014 63.1148 35.914 50.4148C33.314 46.0148 29.614 42.0148 25.114 39.8148C24.514 39.5148 21.014 38.1148 22.814 40.1148C24.214 41.8148 25.914 43.2148 27.314 44.9148C34.014 53.4148 36.414 65.8148 29.514 75.1148C25.414 80.2148 18.314 83.1148 12.614 78.9148C9.91399 76.7148 8.41399 72.9148 10.414 69.6148C11.514 68.0148 14.014 67.2148 12.714 64.8148C10.814 61.8148 6.81399 62.6148 4.41399 64.3148C-0.786012 68.3148 -0.986012 75.6148 1.71399 81.3148C2.11399 82.0148 2.51399 82.7148 2.91399 83.3148Z" fill="black"/>
<path fill-rule="evenodd" clip-rule="evenodd" d="M45.1132 89.6148C43.3132 97.6148 44.8132 107.715 51.9132 112.215C53.4132 113.115 58.1132 114.815 58.1132 111.415C58.1132 110.615 57.9132 109.815 57.9132 109.015C58.2132 101.015 67.3132 93.8148 73.9132 100.115C77.6132 103.815 78.0132 110.015 76.1132 114.715C72.3132 123.215 63.2132 125.815 55.1132 123.315C44.2132 119.415 38.1132 107.915 39.0132 96.1148C39.8132 85.7148 43.8132 75.4148 43.4132 66.3148C43.4132 63.4148 48.0132 76.7148 45.1132 89.6148Z" fill="black"/>
<path fill-rule="evenodd" clip-rule="evenodd" d="M35.2129 44.2148C41.1129 49.6148 45.4129 56.6148 48.1129 64.3148C50.7129 72.0148 50.4129 80.2148 49.1129 88.2148C48.7129 91.2148 48.1129 94.3148 47.9129 97.3148C47.9129 98.5148 47.9129 99.7148 48.1129 100.915C48.3129 101.915 48.7129 102.915 49.2129 103.815C48.5129 103.015 48.1129 102.015 47.8129 101.015C47.5129 99.8148 47.3129 98.6148 47.3129 97.3148C47.2129 94.2148 47.6129 91.1148 47.9129 88.0148C48.6129 80.2148 49.0129 72.4148 46.6129 64.8148C44.2129 57.2148 40.4129 50.1148 35.2129 44.2148Z" fill="black"/>
<path fill-rule="evenodd" clip-rule="evenodd" d="M10.2129 110.515C13.2129 108.115 14.8129 102.515 18.4129 100.115C19.7129 99.2148 21.1129 98.3148 22.6129 97.8148C24.2129 97.2148 25.8129 96.8148 27.4129 96.3148C30.2129 95.2148 32.5129 93.8148 34.3129 91.1148C34.9129 90.1148 35.4129 89.0148 35.8129 87.7148C35.6129 89.6148 35.4129 91.3148 35.2129 92.9148C34.1129 98.9148 32.2129 105.315 27.7129 109.615C24.3129 112.615 19.9129 113.715 15.5129 112.815C13.8129 112.315 11.8129 111.615 10.2129 110.515Z" fill="black"/>
<path fill-rule="evenodd" clip-rule="evenodd" d="M33.4145 94.8149C31.8145 97.0149 30.3145 99.3149 28.1145 100.915C27.5145 101.315 26.8145 101.715 26.2145 102.015C25.1145 102.515 23.9145 102.815 22.9145 103.415C20.7145 104.615 24.9145 103.015 25.0145 103.815C25.0145 105.515 19.6145 105.815 18.8145 107.615L25.9145 105.815C25.6145 106.415 25.3145 107.015 24.9145 107.515L23.9145 109.115C24.3145 109.115 24.4145 109.015 24.7145 108.815C26.2145 107.915 27.0145 105.715 27.8145 104.215C28.2145 103.515 28.6145 102.815 29.1145 102.215C30.9145 99.9149 32.3145 97.5149 33.4145 94.8149Z" fill="black"/>
<path fill-rule="evenodd" clip-rule="evenodd" d="M2.11289 74.7148C1.71289 73.7148 1.61289 72.5148 1.81289 71.3148C2.11289 70.1148 2.61289 68.9148 3.41289 67.8148C4.21289 66.8148 5.11289 65.9148 6.21289 65.5148C6.41289 65.4148 6.61289 65.4148 6.81289 65.3148C7.11289 65.2148 7.31289 65.2148 7.61289 65.2148C8.01289 65.2148 8.41289 65.3148 8.81289 65.5148C8.51289 65.4148 8.01289 65.4148 7.61289 65.5148C7.41289 65.6148 7.11289 65.7148 6.91289 65.8148C6.71289 65.9148 6.61289 66.0148 6.41289 66.1148C5.51289 66.7148 4.71289 67.5148 4.01289 68.3148C3.21289 69.2148 2.51289 70.2148 2.11289 71.3148C1.71289 72.5148 1.71289 73.7148 2.11289 74.7148Z" fill="black"/>
<path fill-rule="evenodd" clip-rule="evenodd" d="M71.9141 117.415C73.4141 115.715 74.5141 113.715 75.0141 111.415C75.3141 109.815 75.3141 108.115 74.9141 106.515C74.8141 105.915 74.6141 105.415 74.4141 104.915C73.8141 103.415 72.8141 102.015 71.4141 101.115C71.3141 101.115 71.2141 101.015 71.2141 101.015C70.7141 100.715 70.2141 100.515 69.6141 100.315C69.1141 100.215 68.5141 100.115 67.9141 100.115C68.4141 100.115 69.0141 100.315 69.4141 100.615C69.8141 100.915 70.2141 101.315 70.5141 101.715C70.5141 101.815 70.6141 101.815 70.6141 101.915C71.4141 103.015 72.1141 104.315 72.6141 105.615C72.8141 106.015 73.0141 106.515 73.2141 106.915C73.7141 108.315 74.0141 109.715 74.0141 111.215C74.2141 113.615 73.4141 115.815 71.9141 117.415Z" fill="black"/>
<path fill-rule="evenodd" clip-rule="evenodd" d="M20.4141 140.715C22.2141 136.815 21.7141 130.415 24.0141 126.115C24.8141 124.515 25.7141 122.915 26.8141 121.615C27.9141 120.215 29.2141 118.915 30.3141 117.515C32.3141 114.915 33.8141 112.315 34.4141 108.715C34.6141 107.415 34.7141 106.015 34.6141 104.515C35.1141 106.415 35.5141 108.215 35.8141 110.015C36.8141 116.515 37.3141 123.815 34.9141 130.415C33.0141 135.215 29.6141 138.615 25.7141 140.015C24.0141 140.615 22.1141 140.915 20.4141 140.715Z" fill="black"/>
<path fill-rule="evenodd" clip-rule="evenodd" d="M34.9129 112.915C34.3129 115.915 33.8129 119.015 32.4129 121.715C32.0129 122.515 31.6129 123.215 31.1129 123.815C30.3129 124.915 29.4129 125.815 28.8129 126.915C27.3129 129.315 30.3129 125.515 30.7129 126.215C31.2129 127.915 26.8129 131.115 26.7129 133.215L32.1129 127.715C32.1129 128.515 31.9129 129.215 31.8129 129.915L31.5129 132.015C31.8129 131.815 31.9129 131.615 32.1129 131.315C33.1129 129.615 33.1129 127.015 33.3129 125.115C33.4129 124.215 33.5129 123.315 33.8129 122.415C34.4129 119.315 34.8129 116.215 34.9129 112.915Z" fill="black"/>
<path fill-rule="evenodd" clip-rule="evenodd" d="M43.7127 207.215C44.9127 181.915 55.8127 147.115 43.7127 123.315C31.6127 147.115 42.6127 181.915 43.7127 207.215Z" fill="black"/>
<path fill-rule="evenodd" clip-rule="evenodd" d="M43.7146 207.215C44.1146 179.715 48.0146 150.615 43.7146 123.315C39.5146 150.715 43.3146 179.715 43.7146 207.215Z" fill="black"/>
<path fill-rule="evenodd" clip-rule="evenodd" d="M140.514 382.415C132.514 380.615 122.414 382.115 117.914 389.215C117.014 390.715 115.314 395.415 118.714 395.415C119.514 395.415 120.314 395.215 121.114 395.215C129.114 395.515 136.314 404.615 130.014 411.215C126.414 414.915 120.114 415.315 115.414 413.415C106.914 409.615 104.314 400.515 106.814 392.415C110.714 381.515 122.214 375.415 134.014 376.315C144.414 377.115 154.714 381.115 163.814 380.715C166.614 380.615 153.314 385.315 140.514 382.415Z" fill="black"/>
<path fill-rule="evenodd" clip-rule="evenodd" d="M119.613 347.515C122.013 350.515 127.613 352.115 130.013 355.715C130.913 357.015 131.813 358.415 132.313 359.915C132.913 361.515 133.313 363.115 133.813 364.715C134.913 367.515 136.313 369.815 139.013 371.615C140.013 372.215 141.113 372.715 142.513 373.115C140.613 372.915 138.913 372.715 137.313 372.515C131.313 371.415 124.913 369.515 120.613 365.015C117.513 361.615 116.513 357.215 117.413 352.815C117.813 351.015 118.413 349.115 119.613 347.515Z" fill="black"/>
<path fill-rule="evenodd" clip-rule="evenodd" d="M135.214 370.715C133.014 369.115 130.714 367.615 129.114 365.415C128.714 364.815 128.314 364.115 128.014 363.515C127.514 362.415 127.214 361.215 126.614 360.215C125.414 358.015 127.014 362.215 126.214 362.315C124.514 362.315 124.214 356.915 122.414 356.115L124.214 363.215C123.614 362.915 123.014 362.615 122.514 362.215L120.914 361.215C120.914 361.615 121.014 361.715 121.214 362.015C122.114 363.515 124.314 364.315 125.814 365.115C126.514 365.515 127.214 365.915 127.814 366.415C130.214 368.115 132.614 369.515 135.214 370.715Z" fill="black"/>
<path fill-rule="evenodd" clip-rule="evenodd" d="M112.613 409.215C114.313 410.715 116.313 411.815 118.613 412.315C120.213 412.615 121.913 412.615 123.513 412.215C124.113 412.115 124.613 411.915 125.113 411.715C126.613 411.115 128.013 410.115 128.913 408.715C128.913 408.615 129.013 408.515 129.013 408.515C129.313 408.015 129.513 407.515 129.713 406.915C129.813 406.415 129.913 405.815 129.913 405.215C129.913 405.715 129.713 406.315 129.413 406.715C129.113 407.115 128.713 407.515 128.313 407.815C128.213 407.815 128.213 407.915 128.113 407.915C127.013 408.715 125.713 409.415 124.413 409.915C124.013 410.115 123.513 410.315 123.113 410.515C121.713 411.015 120.313 411.315 118.813 411.315C116.413 411.415 114.313 410.715 112.613 409.215Z" fill="black"/>
<path fill-rule="evenodd" clip-rule="evenodd" d="M89.4145 357.715C93.3145 359.515 99.7145 359.015 104.015 361.315C105.615 362.115 107.215 363.015 108.515 364.115C109.915 365.215 111.215 366.515 112.615 367.615C115.215 369.615 117.815 371.115 121.415 371.715C122.715 371.915 124.115 372.015 125.615 371.915C123.715 372.415 121.915 372.815 120.115 373.115C113.615 374.115 106.315 374.615 99.7145 372.215C94.9145 370.315 91.5145 366.915 90.1145 363.015C89.5145 361.315 89.1145 359.415 89.4145 357.715Z" fill="black"/>
<path fill-rule="evenodd" clip-rule="evenodd" d="M117.214 372.215C114.214 371.615 111.114 371.115 108.414 369.715C107.614 369.315 106.914 368.915 106.314 368.415C105.214 367.615 104.314 366.715 103.214 366.015C100.814 364.515 104.614 367.515 103.914 367.915C102.214 368.415 99.0141 364.015 96.9141 363.915L102.414 369.315C101.614 369.315 100.914 369.115 100.214 369.015L98.1141 368.715C98.3141 369.015 98.5141 369.115 98.8141 369.315C100.514 370.315 103.114 370.315 105.014 370.515C105.914 370.615 106.814 370.715 107.714 371.015C110.814 371.615 113.914 372.015 117.214 372.215Z" fill="black"/>
<path fill-rule="evenodd" clip-rule="evenodd" d="M22.8145 381.015C48.1145 382.215 82.9144 393.115 106.714 381.015C82.9144 368.815 48.2145 379.815 22.8145 381.015Z" fill="black"/>
<path fill-rule="evenodd" clip-rule="evenodd" d="M22.8145 381.015C50.3145 380.615 79.3144 376.715 106.714 381.015C79.4144 385.215 50.3145 381.415 22.8145 381.015Z" fill="black"/>
<path fill-rule="evenodd" clip-rule="evenodd" d="M2.91399 331.115C9.01399 322.715 19.714 321.815 28.014 326.715C40.314 334.515 43.014 351.315 35.914 364.015C33.314 368.415 29.614 372.415 25.114 374.615C24.514 374.915 21.014 376.315 22.814 374.315C24.214 372.615 25.914 371.215 27.314 369.515C34.014 361.015 36.414 348.615 29.514 339.315C25.414 334.215 18.314 331.315 12.614 335.515C9.91399 337.715 8.41399 341.515 10.414 344.815C11.514 346.415 14.014 347.215 12.714 349.615C10.814 352.615 6.81399 351.815 4.41399 350.115C-0.786012 346.115 -0.986012 338.815 1.71399 333.115C2.11399 332.415 2.51399 331.815 2.91399 331.115Z" fill="black"/>
<path fill-rule="evenodd" clip-rule="evenodd" d="M45.1132 324.915C43.3132 316.915 44.8132 306.815 51.9132 302.315C53.4132 301.415 58.1132 299.715 58.1132 303.115C58.1132 303.915 57.9132 304.715 57.9132 305.515C58.2132 313.515 67.3132 320.715 73.9132 314.415C77.6132 310.715 78.0132 304.515 76.1132 299.815C72.3132 291.315 63.2132 288.715 55.1132 291.215C44.2132 295.115 38.1132 306.615 39.0132 318.415C39.8132 328.815 43.8132 339.115 43.4132 348.215C43.4132 351.015 48.0132 337.715 45.1132 324.915Z" fill="black"/>
<path fill-rule="evenodd" clip-rule="evenodd" d="M35.2129 370.215C41.1129 364.815 45.4129 357.915 48.1129 350.115C50.7129 342.415 50.4129 334.215 49.1129 326.215C48.7129 323.215 48.1129 320.115 47.9129 317.115C47.9129 315.915 47.9129 314.715 48.1129 313.515C48.3129 312.515 48.7129 311.515 49.2129 310.615C48.5129 311.415 48.1129 312.415 47.8129 313.415C47.5129 314.615 47.3129 315.815 47.3129 317.115C47.2129 320.215 47.6129 323.315 47.9129 326.415C48.6129 334.215 49.0129 342.015 46.6129 349.615C44.2129 357.215 40.4129 364.315 35.2129 370.215Z" fill="black"/>
<path fill-rule="evenodd" clip-rule="evenodd" d="M10.2129 304.015C13.2129 306.415 14.8129 312.015 18.4129 314.415C19.7129 315.315 21.1129 316.215 22.6129 316.715C24.2129 317.315 25.8129 317.715 27.4129 318.215C30.2129 319.315 32.5129 320.715 34.3129 323.415C34.9129 324.415 35.4129 325.515 35.8129 326.815C35.6129 324.915 35.4129 323.215 35.2129 321.615C34.1129 315.615 32.2129 309.215 27.7129 304.915C24.3129 301.915 19.9129 300.815 15.5129 301.715C13.8129 302.215 11.8129 302.915 10.2129 304.015Z" fill="black"/>
<path fill-rule="evenodd" clip-rule="evenodd" d="M33.4145 319.715C31.8145 317.515 30.3145 315.215 28.1145 313.615C27.5145 313.215 26.8145 312.815 26.2145 312.515C25.1145 312.015 23.9145 311.715 22.9145 311.115C20.7145 309.915 24.9145 311.515 25.0145 310.715C25.0145 309.015 19.6145 308.715 18.8145 306.915L25.9145 308.715C25.6145 308.115 25.3145 307.515 24.9145 307.015L23.9145 305.415C24.3145 305.415 24.4145 305.515 24.7145 305.715C26.2145 306.615 27.0145 308.815 27.8145 310.315C28.2145 311.015 28.6145 311.715 29.1145 312.315C30.9145 314.615 32.3145 317.015 33.4145 319.715Z" fill="black"/>
<path fill-rule="evenodd" clip-rule="evenodd" d="M2.11289 339.815C1.71289 340.815 1.61289 342.015 1.81289 343.215C2.11289 344.415 2.61289 345.615 3.41289 346.715C4.21289 347.715 5.11289 348.615 6.21289 349.015C6.41289 349.115 6.61289 349.215 6.81289 349.215C7.11289 349.315 7.31289 349.315 7.61289 349.315C8.01289 349.315 8.41289 349.215 8.81289 349.015C8.51289 349.115 8.01289 349.115 7.61289 349.015C7.41289 348.915 7.11289 348.815 6.91289 348.715C6.71289 348.615 6.61289 348.515 6.41289 348.415C5.51289 347.815 4.71289 347.015 4.01289 346.215C3.21289 345.315 2.51289 344.315 2.11289 343.215C1.71289 342.015 1.71289 340.815 2.11289 339.815Z" fill="black"/>
<path fill-rule="evenodd" clip-rule="evenodd" d="M71.9141 297.015C73.4141 298.715 74.5141 300.715 75.0141 303.015C75.3141 304.615 75.3141 306.315 74.9141 307.915C74.8141 308.515 74.6141 309.015 74.4141 309.515C73.8141 311.015 72.8141 312.415 71.4141 313.315C71.3141 313.415 71.2141 313.415 71.2141 313.415C70.7141 313.715 70.2141 313.915 69.6141 314.115C69.1141 314.215 68.5141 314.315 67.9141 314.315C68.4141 314.315 69.0141 314.115 69.4141 313.815C69.8141 313.515 70.2141 313.115 70.5141 312.715C70.5141 312.615 70.6141 312.615 70.6141 312.515C71.4141 311.415 72.1141 310.115 72.6141 308.815C72.8141 308.415 73.0141 307.915 73.2141 307.515C73.7141 306.115 74.0141 304.715 74.0141 303.215C74.2141 300.815 73.4141 298.715 71.9141 297.015Z" fill="black"/>
<path fill-rule="evenodd" clip-rule="evenodd" d="M20.4141 273.815C22.2141 277.715 21.7141 284.115 24.0141 288.415C24.8141 290.015 25.7141 291.615 26.8141 292.915C27.9141 294.315 29.2141 295.615 30.3141 297.015C32.3141 299.615 33.8141 302.215 34.4141 305.815C34.6141 307.115 34.7141 308.515 34.6141 310.015C35.1141 308.115 35.5141 306.315 35.8141 304.515C36.8141 298.015 37.3141 290.715 34.9141 284.115C33.0141 279.315 29.6141 275.915 25.7141 274.515C24.0141 273.915 22.1141 273.515 20.4141 273.815Z" fill="black"/>
<path fill-rule="evenodd" clip-rule="evenodd" d="M34.9129 301.615C34.3129 298.615 33.8129 295.515 32.4129 292.815C32.0129 292.115 31.6129 291.315 31.1129 290.715C30.3129 289.615 29.4129 288.715 28.8129 287.615C27.3129 285.215 30.3129 289.015 30.7129 288.315C31.2129 286.615 26.8129 283.415 26.7129 281.315L32.1129 286.815C32.1129 286.015 31.9129 285.315 31.8129 284.615L31.5129 282.515C31.8129 282.715 31.9129 282.915 32.1129 283.215C33.1129 284.915 33.1129 287.515 33.3129 289.415C33.4129 290.315 33.5129 291.215 33.8129 292.115C34.4129 295.215 34.8129 298.315 34.9129 301.615Z" fill="black"/>
<path fill-rule="evenodd" clip-rule="evenodd" d="M43.7127 207.215C44.9127 232.515 55.8127 267.315 43.7127 291.115C31.6127 267.315 42.6127 232.615 43.7127 207.215Z" fill="black"/>
<path fill-rule="evenodd" clip-rule="evenodd" d="M43.7146 207.215C44.1146 234.715 48.0146 263.815 43.7146 291.115C39.5146 263.815 43.3146 234.815 43.7146 207.215Z" fill="black"/>
</svg>
