<?xml version="1.0" encoding="iso-8859-1"?>
<!-- Generator: Adobe Illustrator 19.0.0, SVG Export Plug-In . SVG Version: 6.00 Build 0)  -->
<svg version="1.1" id="Layer_1" xmlns="http://www.w3.org/2000/svg" xmlns:xlink="http://www.w3.org/1999/xlink" x="0px" y="0px"
	 viewBox="0 0 512 512" style="enable-background:new 0 0 512 512;" xml:space="preserve">
<g>
	<g>
		<g>
			<path d="M120.32,67.197c0-1.175,0.284-3.477,2.258-5.422c1.946-1.974,4.239-2.258,5.422-2.258h217.603V80
				c0,6.551,2.496,13.102,7.488,18.102c5.01,4.995,11.561,7.496,18.109,7.496h20.48v135.685h17.917V105.6v-0.003L345.603,41.6H128
				c-6.561,0-13.112,2.509-18.092,7.506c-4.992,4.989-7.508,11.541-7.508,18.092v174.085h17.92V67.197z"/>
			<path d="M360.963,213.12H151.04c-3.515,0-6.395,2.877-6.395,6.4c0,3.52,2.88,6.405,6.395,6.405h209.923
				c3.523,0,6.403-2.885,6.403-6.405C367.365,215.997,364.485,213.12,360.963,213.12z"/>
			<path d="M360.963,178.56H151.04c-3.515,0-6.395,2.88-6.395,6.4c0,3.52,2.88,6.4,6.395,6.4h209.923c3.523,0,6.403-2.883,6.403-6.4
				C367.365,181.44,364.485,178.56,360.963,178.56z"/>
			<path d="M360.963,144.003H151.04c-3.515,0-6.395,2.875-6.395,6.395c0,3.523,2.88,6.403,6.395,6.403h209.923
				c3.523,0,6.403-2.88,6.403-6.403C367.365,146.877,364.485,144,360.963,144.003z"/>
			<path d="M151.04,122.24h168.955c3.533,0,6.405-2.88,6.405-6.4c0-3.52-2.872-6.4-6.403-6.4H151.04c-3.515,0-6.395,2.88-6.395,6.4
				C144.645,119.36,147.525,122.24,151.04,122.24z"/>
			<path d="M493.256,169.139c-12.495-12.49-28.872-18.744-45.261-18.744h-20.477V251.52c0,1.964-0.745,3.927-2.248,5.427
				c-1.498,1.5-3.461,2.253-5.432,2.253H92.163c-1.974,0-3.937-0.753-5.44-2.253c-1.495-1.5-2.248-3.464-2.248-5.427V150.397h-20.47
				c-16.387,0-32.763,6.252-45.261,18.744C6.249,181.647,0,198.024,0,214.4v174.08c0,4.582,1.754,9.17,5.248,12.669
				c3.505,3.494,8.084,5.253,12.672,5.253h92.16V368c0-1.966,0.745-3.927,2.248-5.427c1.495-1.5,3.469-2.253,5.432-2.253H128v84.483
				c0,6.551,2.496,13.097,7.496,18.102c4.992,4.99,11.551,7.496,18.102,7.496h204.795c6.561,0,13.11-2.506,18.112-7.496
				c4.989-5.005,7.506-11.553,7.506-18.102V360.32h10.23c1.974,0,3.924,0.753,5.43,2.253c1.505,1.5,2.25,3.464,2.25,5.427v38.405
				h92.163c4.588,0,9.172-1.759,12.669-5.253c3.505-3.5,5.248-8.087,5.248-12.669v-174.08
				C512,198.024,505.761,181.647,493.256,169.139z M366.083,444.803c0,1.183-0.294,3.471-2.258,5.432
				c-1.946,1.953-4.239,2.248-5.432,2.248H153.6c-1.193,0-3.476-0.294-5.432-2.248c-1.953-1.961-2.248-4.25-2.248-5.432V360.32
				h220.163V444.803z M476.163,373.117h-12.8c-3.512,0-6.403-2.875-6.403-6.395c0-3.523,2.89-6.403,6.403-6.403h12.8
				c3.523,0,6.405,2.88,6.405,6.403C482.568,370.243,479.685,373.117,476.163,373.117z M469.768,237.007
				c-7.084,0-12.808-5.724-12.808-12.8c0-7.066,5.724-12.8,12.808-12.8c7.066,0,12.8,5.734,12.8,12.8
				C482.568,231.283,476.833,237.007,469.768,237.007z"/>
		</g>
	</g>
</g>
<g>
</g>
<g>
</g>
<g>
</g>
<g>
</g>
<g>
</g>
<g>
</g>
<g>
</g>
<g>
</g>
<g>
</g>
<g>
</g>
<g>
</g>
<g>
</g>
<g>
</g>
<g>
</g>
<g>
</g>
</svg>
