<svg width="165" height="415" viewBox="0 0 165 415" fill="none" xmlns="http://www.w3.org/2000/svg">
<path fill-rule="evenodd" clip-rule="evenodd" d="M23.6765 32.1148C31.6765 33.9148 41.7765 32.4148 46.2765 25.3148C47.1765 23.8148 48.8765 19.1148 45.4765 19.1148C44.6765 19.1148 43.8765 19.3148 43.0765 19.3148C35.0765 19.0148 27.8765 9.91478 34.1765 3.31478C37.7765 -0.385216 44.0765 -0.785216 48.7765 1.11478C57.2765 4.91478 59.8765 14.0148 57.3765 22.1148C53.4765 33.0148 41.9765 39.1148 30.1765 38.2148C19.7765 37.4148 9.47652 33.4148 0.376514 33.8148C-2.42348 33.8148 10.8765 29.2148 23.6765 32.1148Z" fill="#8C5D5A"/>
<path fill-rule="evenodd" clip-rule="evenodd" d="M44.5776 67.0148C42.1776 64.0148 36.5776 62.4148 34.1776 58.8148C33.2776 57.5148 32.3776 56.1148 31.8776 54.6148C31.2776 53.0148 30.8776 51.4148 30.3776 49.8148C29.2776 47.0148 27.8776 44.7148 25.1776 42.9148C24.1776 42.3148 23.0776 41.8148 21.6776 41.4148C23.5776 41.6148 25.2776 41.8148 26.8776 42.0148C32.8776 43.1148 39.2776 45.0148 43.5776 49.4148C46.6776 52.8148 47.6776 57.2148 46.7776 61.6148C46.3776 63.4148 45.7776 65.4148 44.5776 67.0148Z" fill="#8C5D5A"/>
<path fill-rule="evenodd" clip-rule="evenodd" d="M28.9764 43.8149C31.1764 45.4149 33.4764 46.9149 35.0764 49.1149C35.4764 49.7149 35.8764 50.4149 36.1764 51.0149C36.6764 52.1149 36.9764 53.3149 37.5764 54.3149C38.7764 56.5149 37.1764 52.3149 37.9764 52.2149C39.6764 52.2149 39.9764 57.6149 41.7764 58.4149L39.9764 51.3149C40.5764 51.6149 41.1764 51.9149 41.6764 52.3149L43.2764 53.3149C43.2764 52.9149 43.1764 52.8149 42.9764 52.5149C42.0764 51.0149 39.8764 50.2149 38.3764 49.4149C37.6764 49.0149 36.9764 48.6149 36.3764 48.1149C33.9764 46.3149 31.5764 44.9149 28.9764 43.8149Z" fill="#8C5D5A"/>
<path fill-rule="evenodd" clip-rule="evenodd" d="M51.5771 5.31482C49.8771 3.81482 47.8771 2.71482 45.5771 2.21482C43.9771 1.91482 42.2771 1.91482 40.6771 2.31482C40.0771 2.41482 39.5771 2.61482 39.0771 2.81482C37.5771 3.41482 36.1772 4.41482 35.2772 5.81482C35.2772 5.91482 35.1771 6.01482 35.1771 6.01482C34.8771 6.51482 34.6772 7.01482 34.4771 7.61482C34.3771 8.11482 34.2772 8.71482 34.2772 9.31482C34.2772 8.81482 34.4772 8.21482 34.7772 7.81482C35.0772 7.41482 35.4771 7.01482 35.8771 6.71482C35.9771 6.71482 35.9771 6.61482 36.0771 6.51482C37.1771 5.71482 38.4771 5.01482 39.7771 4.51482C40.1771 4.31482 40.6771 4.11482 41.0771 3.91482C42.4771 3.41482 43.8771 3.11482 45.3771 3.11482C47.7771 3.01482 49.8771 3.81482 51.5771 5.31482Z" fill="#8C5D5A"/>
<path fill-rule="evenodd" clip-rule="evenodd" d="M74.7759 56.8149C70.8759 55.0149 64.4759 55.5149 60.1759 53.2149C58.5759 52.4149 56.9759 51.5149 55.6759 50.4149C54.2759 49.3149 52.9759 48.0149 51.5759 46.9149C48.9759 44.9149 46.3759 43.4149 42.7759 42.8149C41.4759 42.6149 40.0759 42.5149 38.5759 42.6149C40.4759 42.1149 42.2759 41.7149 44.0759 41.4149C50.5759 40.4149 57.8759 39.9149 64.4759 42.3149C69.2759 44.2149 72.6759 47.6149 74.0759 51.5149C74.6759 53.2149 75.0759 55.1149 74.7759 56.8149Z" fill="#8C5D5A"/>
<path fill-rule="evenodd" clip-rule="evenodd" d="M46.9764 42.3149C49.9764 42.9149 53.0764 43.4149 55.7764 44.8149C56.5764 45.2149 57.2764 45.6149 57.8764 46.1149C58.9764 46.9149 59.8764 47.8149 60.9764 48.4149C63.3764 49.9149 59.5764 46.9149 60.2764 46.5149C61.9764 46.0149 65.1764 50.4149 67.2764 50.5149L61.7764 45.1149C62.5764 45.1149 63.2764 45.3149 63.9764 45.4149L66.1764 45.8149C65.9764 45.5149 65.7764 45.4149 65.4764 45.2149C63.7764 44.2149 61.1764 44.2149 59.2764 44.0149C58.3764 43.9149 57.4764 43.8149 56.5764 43.5149C53.3764 42.8149 50.2764 42.4149 46.9764 42.3149Z" fill="#8C5D5A"/>
<path fill-rule="evenodd" clip-rule="evenodd" d="M141.376 33.5149C116.076 32.3149 81.276 21.4149 57.476 33.5149C81.276 45.6149 115.976 34.6149 141.376 33.5149Z" fill="#8C5D5A"/>
<path fill-rule="evenodd" clip-rule="evenodd" d="M141.376 33.5149C113.876 33.9149 84.876 37.8149 57.476 33.5149C84.776 29.2149 113.876 33.1149 141.376 33.5149Z" fill="#8C5D5A"/>
<path fill-rule="evenodd" clip-rule="evenodd" d="M161.276 83.3148C155.176 91.6148 144.476 92.6148 136.176 87.7148C123.876 79.9148 121.176 63.1148 128.276 50.4148C130.876 46.0148 134.576 42.0148 139.076 39.8148C139.676 39.5148 143.176 38.1148 141.376 40.1148C139.976 41.8148 138.276 43.2148 136.876 44.9148C130.176 53.4148 127.776 65.8148 134.676 75.1148C138.776 80.2148 145.876 83.1148 151.576 78.9148C154.276 76.7148 155.776 72.9148 153.776 69.6148C152.676 68.0148 150.176 67.2148 151.476 64.8148C153.376 61.8148 157.376 62.6148 159.776 64.3148C164.976 68.3148 165.176 75.6148 162.476 81.3148C162.076 82.0148 161.676 82.7148 161.276 83.3148Z" fill="#8C5D5A"/>
<path fill-rule="evenodd" clip-rule="evenodd" d="M119.077 89.6148C120.877 97.6148 119.377 107.715 112.277 112.215C110.777 113.115 106.077 114.815 106.077 111.415C106.077 110.615 106.277 109.815 106.277 109.015C105.977 101.015 96.8773 93.8148 90.2773 100.115C86.5773 103.815 86.1773 110.015 88.0773 114.715C91.8773 123.215 100.977 125.815 109.077 123.315C119.977 119.415 126.077 107.915 125.177 96.1148C124.377 85.7148 120.377 75.4148 120.777 66.3148C120.777 63.4148 116.177 76.7148 119.077 89.6148Z" fill="#8C5D5A"/>
<path fill-rule="evenodd" clip-rule="evenodd" d="M128.978 44.2148C123.078 49.6148 118.778 56.6148 116.078 64.3148C113.478 72.0148 113.778 80.2148 115.078 88.2148C115.478 91.2148 116.078 94.3148 116.278 97.3148C116.278 98.5148 116.278 99.7148 116.078 100.915C115.878 101.915 115.478 102.915 114.978 103.815C115.678 103.015 116.078 102.015 116.378 101.015C116.678 99.8148 116.878 98.6148 116.878 97.3148C116.978 94.2148 116.578 91.1148 116.278 88.0148C115.578 80.2148 115.178 72.4148 117.578 64.8148C119.978 57.2148 123.778 50.1148 128.978 44.2148Z" fill="#8C5D5A"/>
<path fill-rule="evenodd" clip-rule="evenodd" d="M153.978 110.515C150.978 108.115 149.378 102.515 145.778 100.115C144.478 99.2148 143.078 98.3148 141.578 97.8148C139.978 97.2148 138.378 96.8148 136.778 96.3148C133.978 95.2148 131.678 93.8148 129.878 91.1148C129.278 90.1148 128.778 89.0148 128.378 87.7148C128.578 89.6148 128.778 91.3148 128.978 92.9148C130.078 98.9148 131.978 105.315 136.478 109.615C139.878 112.615 144.278 113.715 148.678 112.815C150.378 112.315 152.378 111.615 153.978 110.515Z" fill="#8C5D5A"/>
<path fill-rule="evenodd" clip-rule="evenodd" d="M130.776 94.8149C132.376 97.0149 133.876 99.3149 136.076 100.915C136.676 101.315 137.376 101.715 137.976 102.015C139.076 102.515 140.276 102.815 141.276 103.415C143.476 104.615 139.276 103.015 139.176 103.815C139.176 105.515 144.576 105.815 145.376 107.615L138.276 105.815C138.576 106.415 138.876 107.015 139.276 107.515L140.276 109.115C139.876 109.115 139.776 109.015 139.476 108.815C137.976 107.915 137.176 105.715 136.376 104.215C135.976 103.515 135.576 102.815 135.076 102.215C133.276 99.9149 131.876 97.5149 130.776 94.8149Z" fill="#8C5D5A"/>
<path fill-rule="evenodd" clip-rule="evenodd" d="M162.078 74.7148C162.478 73.7148 162.578 72.5148 162.378 71.3148C162.078 70.1148 161.578 68.9148 160.778 67.8148C159.978 66.8148 159.078 65.9148 157.978 65.5148C157.778 65.4148 157.578 65.4148 157.378 65.3148C157.078 65.2148 156.878 65.2148 156.578 65.2148C156.178 65.2148 155.778 65.3148 155.378 65.5148C155.678 65.4148 156.178 65.4148 156.578 65.5148C156.778 65.6148 157.078 65.7148 157.278 65.8148C157.478 65.9148 157.578 66.0148 157.778 66.1148C158.678 66.7148 159.478 67.5148 160.178 68.3148C160.978 69.2148 161.678 70.2148 162.078 71.3148C162.478 72.5148 162.478 73.7148 162.078 74.7148Z" fill="#8C5D5A"/>
<path fill-rule="evenodd" clip-rule="evenodd" d="M92.2764 117.415C90.7764 115.715 89.6764 113.715 89.1764 111.415C88.8764 109.815 88.8764 108.115 89.2764 106.515C89.3764 105.915 89.5764 105.415 89.7764 104.915C90.3764 103.415 91.3764 102.015 92.7764 101.115C92.8764 101.115 92.9764 101.015 92.9764 101.015C93.4764 100.715 93.9764 100.515 94.5764 100.315C95.0764 100.215 95.6764 100.115 96.2764 100.115C95.7764 100.115 95.1764 100.315 94.7764 100.615C94.3764 100.915 93.9764 101.315 93.6764 101.715C93.6764 101.815 93.5764 101.815 93.5764 101.915C92.7764 103.015 92.0764 104.315 91.5764 105.615C91.3764 106.015 91.1764 106.515 90.9764 106.915C90.4764 108.315 90.1764 109.715 90.1764 111.215C89.9764 113.615 90.7764 115.815 92.2764 117.415Z" fill="#8C5D5A"/>
<path fill-rule="evenodd" clip-rule="evenodd" d="M143.776 140.715C141.976 136.815 142.476 130.415 140.176 126.115C139.376 124.515 138.476 122.915 137.376 121.615C136.276 120.215 134.976 118.915 133.876 117.515C131.876 114.915 130.376 112.315 129.776 108.715C129.576 107.415 129.476 106.015 129.576 104.515C129.076 106.415 128.676 108.215 128.376 110.015C127.376 116.515 126.876 123.815 129.276 130.415C131.176 135.215 134.576 138.615 138.476 140.015C140.176 140.615 142.076 140.915 143.776 140.715Z" fill="#8C5D5A"/>
<path fill-rule="evenodd" clip-rule="evenodd" d="M129.278 112.915C129.878 115.915 130.378 119.015 131.778 121.715C132.178 122.515 132.578 123.215 133.078 123.815C133.878 124.915 134.778 125.815 135.378 126.915C136.878 129.315 133.878 125.515 133.478 126.215C132.978 127.915 137.378 131.115 137.478 133.215L132.078 127.715C132.078 128.515 132.278 129.215 132.378 129.915L132.678 132.015C132.378 131.815 132.278 131.615 132.078 131.315C131.078 129.615 131.078 127.015 130.878 125.115C130.778 124.215 130.678 123.315 130.378 122.415C129.778 119.315 129.378 116.215 129.278 112.915Z" fill="#8C5D5A"/>
<path fill-rule="evenodd" clip-rule="evenodd" d="M120.478 207.215C119.278 181.915 108.378 147.115 120.478 123.315C132.578 147.115 121.578 181.915 120.478 207.215Z" fill="#8C5D5A"/>
<path fill-rule="evenodd" clip-rule="evenodd" d="M120.476 207.215C120.076 179.715 116.176 150.615 120.476 123.315C124.676 150.715 120.876 179.715 120.476 207.215Z" fill="#8C5D5A"/>
<path fill-rule="evenodd" clip-rule="evenodd" d="M23.6765 382.415C31.6765 380.615 41.7765 382.115 46.2765 389.215C47.1765 390.715 48.8765 395.415 45.4765 395.415C44.6765 395.415 43.8765 395.215 43.0765 395.215C35.0765 395.515 27.8765 404.615 34.1765 411.215C37.7765 414.915 44.0765 415.315 48.7765 413.415C57.2765 409.615 59.8765 400.515 57.3765 392.415C53.4765 381.515 41.9765 375.415 30.1765 376.315C19.7765 377.115 9.47652 381.115 0.376514 380.715C-2.42348 380.615 10.8765 385.315 23.6765 382.415Z" fill="#8C5D5A"/>
<path fill-rule="evenodd" clip-rule="evenodd" d="M44.5776 347.515C42.1776 350.515 36.5776 352.115 34.1776 355.715C33.2776 357.015 32.3776 358.415 31.8776 359.915C31.2776 361.515 30.8776 363.115 30.3776 364.715C29.2776 367.515 27.8776 369.815 25.1776 371.615C24.1776 372.215 23.0776 372.715 21.6776 373.115C23.5776 372.915 25.2776 372.715 26.8776 372.515C32.8776 371.415 39.2776 369.515 43.5776 365.015C46.6776 361.615 47.6776 357.215 46.7776 352.815C46.3776 351.015 45.7776 349.115 44.5776 347.515Z" fill="#8C5D5A"/>
<path fill-rule="evenodd" clip-rule="evenodd" d="M28.9764 370.715C31.1764 369.115 33.4764 367.615 35.0764 365.415C35.4764 364.815 35.8764 364.115 36.1764 363.515C36.6764 362.415 36.9764 361.215 37.5764 360.215C38.7764 358.015 37.1764 362.215 37.9764 362.315C39.6764 362.315 39.9764 356.915 41.7764 356.115L39.9764 363.215C40.5764 362.915 41.1764 362.615 41.6764 362.215L43.2764 361.215C43.2764 361.615 43.1764 361.715 42.9764 362.015C42.0764 363.515 39.8764 364.315 38.3764 365.115C37.6764 365.515 36.9764 365.915 36.3764 366.415C33.9764 368.115 31.5764 369.515 28.9764 370.715Z" fill="#8C5D5A"/>
<path fill-rule="evenodd" clip-rule="evenodd" d="M51.5771 409.215C49.8771 410.715 47.8771 411.815 45.5771 412.315C43.9771 412.615 42.2771 412.615 40.6771 412.215C40.0771 412.115 39.5771 411.915 39.0771 411.715C37.5771 411.115 36.1772 410.115 35.2772 408.715C35.2772 408.615 35.1771 408.515 35.1771 408.515C34.8771 408.015 34.6772 407.515 34.4771 406.915C34.3771 406.415 34.2772 405.815 34.2772 405.215C34.2772 405.715 34.4772 406.315 34.7772 406.715C35.0772 407.115 35.4771 407.515 35.8771 407.815C35.9771 407.815 35.9771 407.915 36.0771 407.915C37.1771 408.715 38.4771 409.415 39.7771 409.915C40.1771 410.115 40.6771 410.315 41.0771 410.515C42.4771 411.015 43.8771 411.315 45.3771 411.315C47.7771 411.415 49.8771 410.715 51.5771 409.215Z" fill="#8C5D5A"/>
<path fill-rule="evenodd" clip-rule="evenodd" d="M74.7759 357.715C70.8759 359.515 64.4759 359.015 60.1759 361.315C58.5759 362.115 56.9759 363.015 55.6759 364.115C54.2759 365.215 52.9759 366.515 51.5759 367.615C48.9759 369.615 46.3759 371.115 42.7759 371.715C41.4759 371.915 40.0759 372.015 38.5759 371.915C40.4759 372.415 42.2759 372.815 44.0759 373.115C50.5759 374.115 57.8759 374.615 64.4759 372.215C69.2759 370.315 72.6759 366.915 74.0759 363.015C74.6759 361.315 75.0759 359.415 74.7759 357.715Z" fill="#8C5D5A"/>
<path fill-rule="evenodd" clip-rule="evenodd" d="M46.9764 372.215C49.9764 371.615 53.0764 371.115 55.7764 369.715C56.5764 369.315 57.2764 368.915 57.8764 368.415C58.9764 367.615 59.8764 366.715 60.9764 366.015C63.3764 364.515 59.5764 367.515 60.2764 367.915C61.9764 368.415 65.1764 364.015 67.2764 363.915L61.7764 369.315C62.5764 369.315 63.2764 369.115 63.9764 369.015L66.0764 368.715C65.8764 369.015 65.6764 369.115 65.3764 369.315C63.6764 370.315 61.0764 370.315 59.1764 370.515C58.2764 370.615 57.3764 370.715 56.4764 371.015C53.3764 371.615 50.2764 372.015 46.9764 372.215Z" fill="#8C5D5A"/>
<path fill-rule="evenodd" clip-rule="evenodd" d="M141.376 381.015C116.076 382.215 81.276 393.115 57.476 381.015C81.276 368.815 115.976 379.815 141.376 381.015Z" fill="#8C5D5A"/>
<path fill-rule="evenodd" clip-rule="evenodd" d="M141.376 381.015C113.876 380.615 84.876 376.715 57.476 381.015C84.776 385.215 113.876 381.415 141.376 381.015Z" fill="#8C5D5A"/>
<path fill-rule="evenodd" clip-rule="evenodd" d="M161.276 331.115C155.176 322.715 144.476 321.815 136.176 326.715C123.876 334.515 121.176 351.315 128.276 364.015C130.876 368.415 134.576 372.415 139.076 374.615C139.676 374.915 143.176 376.315 141.376 374.315C139.976 372.615 138.276 371.215 136.876 369.515C130.176 361.015 127.776 348.615 134.676 339.315C138.776 334.215 145.876 331.315 151.576 335.515C154.276 337.715 155.776 341.515 153.776 344.815C152.676 346.415 150.176 347.215 151.476 349.615C153.376 352.615 157.376 351.815 159.776 350.115C164.976 346.115 165.176 338.815 162.476 333.115C162.076 332.415 161.676 331.815 161.276 331.115Z" fill="#8C5D5A"/>
<path fill-rule="evenodd" clip-rule="evenodd" d="M119.077 324.915C120.877 316.915 119.377 306.815 112.277 302.315C110.777 301.415 106.077 299.715 106.077 303.115C106.077 303.915 106.277 304.715 106.277 305.515C105.977 313.515 96.8773 320.715 90.2773 314.415C86.5773 310.715 86.1773 304.515 88.0773 299.815C91.8773 291.315 100.977 288.715 109.077 291.215C119.977 295.115 126.077 306.615 125.177 318.415C124.377 328.815 120.377 339.115 120.777 348.215C120.777 351.015 116.177 337.715 119.077 324.915Z" fill="#8C5D5A"/>
<path fill-rule="evenodd" clip-rule="evenodd" d="M128.978 370.215C123.078 364.815 118.778 357.915 116.078 350.115C113.478 342.415 113.778 334.215 115.078 326.215C115.478 323.215 116.078 320.115 116.278 317.115C116.278 315.915 116.278 314.715 116.078 313.515C115.878 312.515 115.478 311.515 114.978 310.615C115.678 311.415 116.078 312.415 116.378 313.415C116.678 314.615 116.878 315.815 116.878 317.115C116.978 320.215 116.578 323.315 116.278 326.415C115.578 334.215 115.178 342.015 117.578 349.615C119.978 357.215 123.778 364.315 128.978 370.215Z" fill="#8C5D5A"/>
<path fill-rule="evenodd" clip-rule="evenodd" d="M153.978 304.015C150.978 306.415 149.378 312.015 145.778 314.415C144.478 315.315 143.078 316.215 141.578 316.715C139.978 317.315 138.378 317.715 136.778 318.215C133.978 319.315 131.678 320.715 129.878 323.415C129.278 324.415 128.778 325.515 128.378 326.815C128.578 324.915 128.778 323.215 128.978 321.615C130.078 315.615 131.978 309.215 136.478 304.915C139.878 301.915 144.278 300.815 148.678 301.715C150.378 302.215 152.378 302.915 153.978 304.015Z" fill="#8C5D5A"/>
<path fill-rule="evenodd" clip-rule="evenodd" d="M130.776 319.715C132.376 317.515 133.876 315.215 136.076 313.615C136.676 313.215 137.376 312.815 137.976 312.515C139.076 312.015 140.276 311.715 141.276 311.115C143.476 309.915 139.276 311.515 139.176 310.715C139.176 309.015 144.576 308.715 145.376 306.915L138.276 308.715C138.576 308.115 138.876 307.515 139.276 307.015L140.276 305.415C139.876 305.415 139.776 305.515 139.476 305.715C137.976 306.615 137.176 308.815 136.376 310.315C135.976 311.015 135.576 311.715 135.076 312.315C133.276 314.615 131.876 317.015 130.776 319.715Z" fill="#8C5D5A"/>
<path fill-rule="evenodd" clip-rule="evenodd" d="M162.078 339.815C162.478 340.815 162.578 342.015 162.378 343.215C162.078 344.415 161.578 345.615 160.778 346.715C159.978 347.715 159.078 348.615 157.978 349.015C157.778 349.115 157.578 349.215 157.378 349.215C157.078 349.315 156.878 349.315 156.578 349.315C156.178 349.315 155.778 349.215 155.378 349.015C155.678 349.115 156.178 349.115 156.578 349.015C156.778 348.915 157.078 348.815 157.278 348.715C157.478 348.615 157.578 348.515 157.778 348.415C158.678 347.815 159.478 347.015 160.178 346.215C160.978 345.315 161.678 344.315 162.078 343.215C162.478 342.015 162.478 340.815 162.078 339.815Z" fill="#8C5D5A"/>
<path fill-rule="evenodd" clip-rule="evenodd" d="M92.2764 297.015C90.7764 298.715 89.6764 300.715 89.1764 303.015C88.8764 304.615 88.8764 306.315 89.2764 307.915C89.3764 308.515 89.5764 309.015 89.7764 309.515C90.3764 311.015 91.3764 312.415 92.7764 313.315C92.8764 313.415 92.9764 313.415 92.9764 313.415C93.4764 313.715 93.9764 313.915 94.5764 314.115C95.0764 314.215 95.6764 314.315 96.2764 314.315C95.7764 314.315 95.1764 314.115 94.7764 313.815C94.3764 313.515 93.9764 313.115 93.6764 312.715C93.6764 312.615 93.5764 312.615 93.5764 312.515C92.7764 311.415 92.0764 310.115 91.5764 308.815C91.3764 308.415 91.1764 307.915 90.9764 307.515C90.4764 306.115 90.1764 304.715 90.1764 303.215C89.9764 300.815 90.7764 298.715 92.2764 297.015Z" fill="#8C5D5A"/>
<path fill-rule="evenodd" clip-rule="evenodd" d="M143.776 273.815C141.976 277.715 142.476 284.115 140.176 288.415C139.376 290.015 138.476 291.615 137.376 292.915C136.276 294.315 134.976 295.615 133.876 297.015C131.876 299.615 130.376 302.215 129.776 305.815C129.576 307.115 129.476 308.515 129.576 310.015C129.076 308.115 128.676 306.315 128.376 304.515C127.376 298.015 126.876 290.715 129.276 284.115C131.176 279.315 134.576 275.915 138.476 274.515C140.176 273.915 142.076 273.515 143.776 273.815Z" fill="#8C5D5A"/>
<path fill-rule="evenodd" clip-rule="evenodd" d="M129.278 301.615C129.878 298.615 130.378 295.515 131.778 292.815C132.178 292.115 132.578 291.315 133.078 290.715C133.878 289.615 134.778 288.715 135.378 287.615C136.878 285.215 133.878 289.015 133.478 288.315C132.978 286.615 137.378 283.415 137.478 281.315L132.078 286.815C132.078 286.015 132.278 285.315 132.378 284.615L132.678 282.515C132.378 282.715 132.278 282.915 132.078 283.215C131.078 284.915 131.078 287.515 130.878 289.415C130.778 290.315 130.678 291.215 130.378 292.115C129.778 295.215 129.378 298.315 129.278 301.615Z" fill="#8C5D5A"/>
<path fill-rule="evenodd" clip-rule="evenodd" d="M120.478 207.215C119.278 232.515 108.378 267.315 120.478 291.115C132.578 267.315 121.578 232.615 120.478 207.215Z" fill="#8C5D5A"/>
<path fill-rule="evenodd" clip-rule="evenodd" d="M120.476 207.215C120.076 234.715 116.176 263.815 120.476 291.115C124.676 263.815 120.876 234.815 120.476 207.215Z" fill="#8C5D5A"/>
</svg>
