<svg width="165" height="415" viewBox="0 0 165 415" fill="none" xmlns="http://www.w3.org/2000/svg">
<path fill-rule="evenodd" clip-rule="evenodd" d="M23.6775 32.1148C31.6775 33.9148 41.7775 32.4148 46.2775 25.3148C47.1775 23.8148 48.8775 19.1148 45.4775 19.1148C44.6775 19.1148 43.8775 19.3148 43.0775 19.3148C35.0775 19.0148 27.8775 9.91478 34.1775 3.31478C37.7775 -0.385216 44.0775 -0.785216 48.7775 1.11478C57.2775 4.91478 59.8775 14.0148 57.3775 22.1148C53.4775 33.0148 41.9775 39.1148 30.1775 38.2148C19.7775 37.4148 9.47749 33.4148 0.377491 33.8148C-2.42251 33.8148 10.8775 29.2148 23.6775 32.1148Z" fill="black"/>
<path fill-rule="evenodd" clip-rule="evenodd" d="M44.5786 67.0148C42.1786 64.0148 36.5786 62.4148 34.1786 58.8148C33.2786 57.5148 32.3786 56.1148 31.8786 54.6148C31.2786 53.0148 30.8786 51.4148 30.3786 49.8148C29.2786 47.0148 27.8786 44.7148 25.1786 42.9148C24.1786 42.3148 23.0786 41.8148 21.6786 41.4148C23.5786 41.6148 25.2786 41.8148 26.8786 42.0148C32.8786 43.1148 39.2786 45.0148 43.5786 49.4148C46.6786 52.8148 47.6786 57.2148 46.7786 61.6148C46.3786 63.4148 45.7786 65.4148 44.5786 67.0148Z" fill="black"/>
<path fill-rule="evenodd" clip-rule="evenodd" d="M28.9773 43.8149C31.1773 45.4149 33.4773 46.9149 35.0773 49.1149C35.4773 49.7149 35.8773 50.4149 36.1773 51.0149C36.6773 52.1149 36.9773 53.3149 37.5773 54.3149C38.7773 56.5149 37.1773 52.3149 37.9773 52.2149C39.6773 52.2149 39.9773 57.6149 41.7773 58.4149L39.9773 51.3149C40.5773 51.6149 41.1773 51.9149 41.6773 52.3149L43.2773 53.3149C43.2773 52.9149 43.1773 52.8149 42.9773 52.5149C42.0773 51.0149 39.8773 50.2149 38.3773 49.4149C37.6773 49.0149 36.9773 48.6149 36.3773 48.1149C33.9773 46.3149 31.5773 44.9149 28.9773 43.8149Z" fill="black"/>
<path fill-rule="evenodd" clip-rule="evenodd" d="M51.5781 5.31482C49.8781 3.81482 47.8781 2.71482 45.5781 2.21482C43.9781 1.91482 42.2781 1.91482 40.6781 2.31482C40.0781 2.41482 39.5781 2.61482 39.0781 2.81482C37.5781 3.41482 36.1781 4.41482 35.2781 5.81482C35.2781 5.91482 35.1781 6.01482 35.1781 6.01482C34.8781 6.51482 34.6781 7.01482 34.4781 7.61482C34.3781 8.11482 34.2781 8.71482 34.2781 9.31482C34.2781 8.81482 34.4781 8.21482 34.7781 7.81482C35.0781 7.41482 35.4781 7.01482 35.8781 6.71482C35.9781 6.71482 35.9781 6.61482 36.0781 6.51482C37.1781 5.71482 38.4781 5.01482 39.7781 4.51482C40.1781 4.31482 40.6781 4.11482 41.0781 3.91482C42.4781 3.41482 43.8781 3.11482 45.3781 3.11482C47.7781 3.01482 49.8781 3.81482 51.5781 5.31482Z" fill="black"/>
<path fill-rule="evenodd" clip-rule="evenodd" d="M74.7769 56.8149C70.8769 55.0149 64.4769 55.5149 60.1769 53.2149C58.5769 52.4149 56.9769 51.5149 55.6769 50.4149C54.2769 49.3149 52.9769 48.0149 51.5769 46.9149C48.9769 44.9149 46.3769 43.4149 42.7769 42.8149C41.4769 42.6149 40.0769 42.5149 38.5769 42.6149C40.4769 42.1149 42.2769 41.7149 44.0769 41.4149C50.5769 40.4149 57.8769 39.9149 64.4769 42.3149C69.2769 44.2149 72.6769 47.6149 74.0769 51.5149C74.6769 53.2149 75.0769 55.1149 74.7769 56.8149Z" fill="black"/>
<path fill-rule="evenodd" clip-rule="evenodd" d="M46.9773 42.3149C49.9773 42.9149 53.0773 43.4149 55.7773 44.8149C56.5773 45.2149 57.2773 45.6149 57.8773 46.1149C58.9773 46.9149 59.8773 47.8149 60.9773 48.4149C63.3773 49.9149 59.5773 46.9149 60.2773 46.5149C61.9773 46.0149 65.1773 50.4149 67.2773 50.5149L61.7773 45.1149C62.5773 45.1149 63.2773 45.3149 63.9773 45.4149L66.1773 45.8149C65.9773 45.5149 65.7773 45.4149 65.4773 45.2149C63.7773 44.2149 61.1773 44.2149 59.2773 44.0149C58.3773 43.9149 57.4773 43.8149 56.5773 43.5149C53.3773 42.8149 50.2773 42.4149 46.9773 42.3149Z" fill="black"/>
<path fill-rule="evenodd" clip-rule="evenodd" d="M141.377 33.5149C116.077 32.3149 81.277 21.4149 57.477 33.5149C81.277 45.6149 115.977 34.6149 141.377 33.5149Z" fill="black"/>
<path fill-rule="evenodd" clip-rule="evenodd" d="M141.377 33.5149C113.877 33.9149 84.877 37.8149 57.477 33.5149C84.777 29.2149 113.877 33.1149 141.377 33.5149Z" fill="black"/>
<path fill-rule="evenodd" clip-rule="evenodd" d="M161.277 83.3148C155.177 91.6148 144.477 92.6148 136.177 87.7148C123.877 79.9148 121.177 63.1148 128.277 50.4148C130.877 46.0148 134.577 42.0148 139.077 39.8148C139.677 39.5148 143.177 38.1148 141.377 40.1148C139.977 41.8148 138.277 43.2148 136.877 44.9148C130.177 53.4148 127.777 65.8148 134.677 75.1148C138.777 80.2148 145.877 83.1148 151.577 78.9148C154.277 76.7148 155.777 72.9148 153.777 69.6148C152.677 68.0148 150.177 67.2148 151.477 64.8148C153.377 61.8148 157.377 62.6148 159.777 64.3148C164.977 68.3148 165.177 75.6148 162.477 81.3148C162.077 82.0148 161.677 82.7148 161.277 83.3148Z" fill="black"/>
<path fill-rule="evenodd" clip-rule="evenodd" d="M119.078 89.6148C120.878 97.6148 119.378 107.715 112.278 112.215C110.778 113.115 106.078 114.815 106.078 111.415C106.078 110.615 106.278 109.815 106.278 109.015C105.978 101.015 96.8782 93.8148 90.2782 100.115C86.5782 103.815 86.1782 110.015 88.0782 114.715C91.8782 123.215 100.978 125.815 109.078 123.315C119.978 119.415 126.078 107.915 125.178 96.1148C124.378 85.7148 120.378 75.4148 120.778 66.3148C120.778 63.4148 116.178 76.7148 119.078 89.6148Z" fill="black"/>
<path fill-rule="evenodd" clip-rule="evenodd" d="M128.979 44.2148C123.079 49.6148 118.779 56.6148 116.079 64.3148C113.479 72.0148 113.779 80.2148 115.079 88.2148C115.479 91.2148 116.079 94.3148 116.279 97.3148C116.279 98.5148 116.279 99.7148 116.079 100.915C115.879 101.915 115.479 102.915 114.979 103.815C115.679 103.015 116.079 102.015 116.379 101.015C116.679 99.8148 116.879 98.6148 116.879 97.3148C116.979 94.2148 116.579 91.1148 116.279 88.0148C115.579 80.2148 115.179 72.4148 117.579 64.8148C119.979 57.2148 123.779 50.1148 128.979 44.2148Z" fill="black"/>
<path fill-rule="evenodd" clip-rule="evenodd" d="M153.979 110.515C150.979 108.115 149.379 102.515 145.779 100.115C144.479 99.2148 143.079 98.3148 141.579 97.8148C139.979 97.2148 138.379 96.8148 136.779 96.3148C133.979 95.2148 131.679 93.8148 129.879 91.1148C129.279 90.1148 128.779 89.0148 128.379 87.7148C128.579 89.6148 128.779 91.3148 128.979 92.9148C130.079 98.9148 131.979 105.315 136.479 109.615C139.879 112.615 144.279 113.715 148.679 112.815C150.379 112.315 152.379 111.615 153.979 110.515Z" fill="black"/>
<path fill-rule="evenodd" clip-rule="evenodd" d="M130.777 94.8149C132.377 97.0149 133.877 99.3149 136.077 100.915C136.677 101.315 137.377 101.715 137.977 102.015C139.077 102.515 140.277 102.815 141.277 103.415C143.477 104.615 139.277 103.015 139.177 103.815C139.177 105.515 144.577 105.815 145.377 107.615L138.277 105.815C138.577 106.415 138.877 107.015 139.277 107.515L140.277 109.115C139.877 109.115 139.777 109.015 139.477 108.815C137.977 107.915 137.177 105.715 136.377 104.215C135.977 103.515 135.577 102.815 135.077 102.215C133.277 99.9149 131.877 97.5149 130.777 94.8149Z" fill="black"/>
<path fill-rule="evenodd" clip-rule="evenodd" d="M162.079 74.7148C162.479 73.7148 162.579 72.5148 162.379 71.3148C162.079 70.1148 161.579 68.9148 160.779 67.8148C159.979 66.8148 159.079 65.9148 157.979 65.5148C157.779 65.4148 157.579 65.4148 157.379 65.3148C157.079 65.2148 156.879 65.2148 156.579 65.2148C156.179 65.2148 155.779 65.3148 155.379 65.5148C155.679 65.4148 156.179 65.4148 156.579 65.5148C156.779 65.6148 157.079 65.7148 157.279 65.8148C157.479 65.9148 157.579 66.0148 157.779 66.1148C158.679 66.7148 159.479 67.5148 160.179 68.3148C160.979 69.2148 161.679 70.2148 162.079 71.3148C162.479 72.5148 162.479 73.7148 162.079 74.7148Z" fill="black"/>
<path fill-rule="evenodd" clip-rule="evenodd" d="M92.2773 117.415C90.7773 115.715 89.6773 113.715 89.1773 111.415C88.8773 109.815 88.8773 108.115 89.2773 106.515C89.3773 105.915 89.5773 105.415 89.7773 104.915C90.3773 103.415 91.3773 102.015 92.7773 101.115C92.8773 101.115 92.9773 101.015 92.9773 101.015C93.4773 100.715 93.9773 100.515 94.5773 100.315C95.0773 100.215 95.6773 100.115 96.2773 100.115C95.7773 100.115 95.1773 100.315 94.7773 100.615C94.3773 100.915 93.9773 101.315 93.6773 101.715C93.6773 101.815 93.5773 101.815 93.5773 101.915C92.7773 103.015 92.0773 104.315 91.5773 105.615C91.3773 106.015 91.1773 106.515 90.9773 106.915C90.4773 108.315 90.1773 109.715 90.1773 111.215C89.9773 113.615 90.7773 115.815 92.2773 117.415Z" fill="black"/>
<path fill-rule="evenodd" clip-rule="evenodd" d="M143.777 140.715C141.977 136.815 142.477 130.415 140.177 126.115C139.377 124.515 138.477 122.915 137.377 121.615C136.277 120.215 134.977 118.915 133.877 117.515C131.877 114.915 130.377 112.315 129.777 108.715C129.577 107.415 129.477 106.015 129.577 104.515C129.077 106.415 128.677 108.215 128.377 110.015C127.377 116.515 126.877 123.815 129.277 130.415C131.177 135.215 134.577 138.615 138.477 140.015C140.177 140.615 142.077 140.915 143.777 140.715Z" fill="black"/>
<path fill-rule="evenodd" clip-rule="evenodd" d="M129.279 112.915C129.879 115.915 130.379 119.015 131.779 121.715C132.179 122.515 132.579 123.215 133.079 123.815C133.879 124.915 134.779 125.815 135.379 126.915C136.879 129.315 133.879 125.515 133.479 126.215C132.979 127.915 137.379 131.115 137.479 133.215L132.079 127.715C132.079 128.515 132.279 129.215 132.379 129.915L132.679 132.015C132.379 131.815 132.279 131.615 132.079 131.315C131.079 129.615 131.079 127.015 130.879 125.115C130.779 124.215 130.679 123.315 130.379 122.415C129.779 119.315 129.379 116.215 129.279 112.915Z" fill="black"/>
<path fill-rule="evenodd" clip-rule="evenodd" d="M120.479 207.215C119.279 181.915 108.379 147.115 120.479 123.315C132.579 147.115 121.579 181.915 120.479 207.215Z" fill="black"/>
<path fill-rule="evenodd" clip-rule="evenodd" d="M120.477 207.215C120.077 179.715 116.177 150.615 120.477 123.315C124.677 150.715 120.877 179.715 120.477 207.215Z" fill="black"/>
<path fill-rule="evenodd" clip-rule="evenodd" d="M23.6775 382.415C31.6775 380.615 41.7775 382.115 46.2775 389.215C47.1775 390.715 48.8775 395.415 45.4775 395.415C44.6775 395.415 43.8775 395.215 43.0775 395.215C35.0775 395.515 27.8775 404.615 34.1775 411.215C37.7775 414.915 44.0775 415.315 48.7775 413.415C57.2775 409.615 59.8775 400.515 57.3775 392.415C53.4775 381.515 41.9775 375.415 30.1775 376.315C19.7775 377.115 9.47749 381.115 0.377491 380.715C-2.42251 380.615 10.8775 385.315 23.6775 382.415Z" fill="black"/>
<path fill-rule="evenodd" clip-rule="evenodd" d="M44.5786 347.515C42.1786 350.515 36.5786 352.115 34.1786 355.715C33.2786 357.015 32.3786 358.415 31.8786 359.915C31.2786 361.515 30.8786 363.115 30.3786 364.715C29.2786 367.515 27.8786 369.815 25.1786 371.615C24.1786 372.215 23.0786 372.715 21.6786 373.115C23.5786 372.915 25.2786 372.715 26.8786 372.515C32.8786 371.415 39.2786 369.515 43.5786 365.015C46.6786 361.615 47.6786 357.215 46.7786 352.815C46.3786 351.015 45.7786 349.115 44.5786 347.515Z" fill="black"/>
<path fill-rule="evenodd" clip-rule="evenodd" d="M28.9773 370.715C31.1773 369.115 33.4773 367.615 35.0773 365.415C35.4773 364.815 35.8773 364.115 36.1773 363.515C36.6773 362.415 36.9773 361.215 37.5773 360.215C38.7773 358.015 37.1773 362.215 37.9773 362.315C39.6773 362.315 39.9773 356.915 41.7773 356.115L39.9773 363.215C40.5773 362.915 41.1773 362.615 41.6773 362.215L43.2773 361.215C43.2773 361.615 43.1773 361.715 42.9773 362.015C42.0773 363.515 39.8773 364.315 38.3773 365.115C37.6773 365.515 36.9773 365.915 36.3773 366.415C33.9773 368.115 31.5773 369.515 28.9773 370.715Z" fill="black"/>
<path fill-rule="evenodd" clip-rule="evenodd" d="M51.5781 409.215C49.8781 410.715 47.8781 411.815 45.5781 412.315C43.9781 412.615 42.2781 412.615 40.6781 412.215C40.0781 412.115 39.5781 411.915 39.0781 411.715C37.5781 411.115 36.1781 410.115 35.2781 408.715C35.2781 408.615 35.1781 408.515 35.1781 408.515C34.8781 408.015 34.6781 407.515 34.4781 406.915C34.3781 406.415 34.2781 405.815 34.2781 405.215C34.2781 405.715 34.4781 406.315 34.7781 406.715C35.0781 407.115 35.4781 407.515 35.8781 407.815C35.9781 407.815 35.9781 407.915 36.0781 407.915C37.1781 408.715 38.4781 409.415 39.7781 409.915C40.1781 410.115 40.6781 410.315 41.0781 410.515C42.4781 411.015 43.8781 411.315 45.3781 411.315C47.7781 411.415 49.8781 410.715 51.5781 409.215Z" fill="black"/>
<path fill-rule="evenodd" clip-rule="evenodd" d="M74.7769 357.715C70.8769 359.515 64.4769 359.015 60.1769 361.315C58.5769 362.115 56.9769 363.015 55.6769 364.115C54.2769 365.215 52.9769 366.515 51.5769 367.615C48.9769 369.615 46.3769 371.115 42.7769 371.715C41.4769 371.915 40.0769 372.015 38.5769 371.915C40.4769 372.415 42.2769 372.815 44.0769 373.115C50.5769 374.115 57.8769 374.615 64.4769 372.215C69.2769 370.315 72.6769 366.915 74.0769 363.015C74.6769 361.315 75.0769 359.415 74.7769 357.715Z" fill="black"/>
<path fill-rule="evenodd" clip-rule="evenodd" d="M46.9773 372.215C49.9773 371.615 53.0773 371.115 55.7773 369.715C56.5773 369.315 57.2773 368.915 57.8773 368.415C58.9773 367.615 59.8773 366.715 60.9773 366.015C63.3773 364.515 59.5773 367.515 60.2773 367.915C61.9773 368.415 65.1773 364.015 67.2773 363.915L61.7773 369.315C62.5773 369.315 63.2773 369.115 63.9773 369.015L66.0773 368.715C65.8773 369.015 65.6773 369.115 65.3773 369.315C63.6773 370.315 61.0773 370.315 59.1773 370.515C58.2773 370.615 57.3773 370.715 56.4773 371.015C53.3773 371.615 50.2773 372.015 46.9773 372.215Z" fill="black"/>
<path fill-rule="evenodd" clip-rule="evenodd" d="M141.377 381.015C116.077 382.215 81.277 393.115 57.477 381.015C81.277 368.815 115.977 379.815 141.377 381.015Z" fill="black"/>
<path fill-rule="evenodd" clip-rule="evenodd" d="M141.377 381.015C113.877 380.615 84.877 376.715 57.477 381.015C84.777 385.215 113.877 381.415 141.377 381.015Z" fill="black"/>
<path fill-rule="evenodd" clip-rule="evenodd" d="M161.277 331.115C155.177 322.715 144.477 321.815 136.177 326.715C123.877 334.515 121.177 351.315 128.277 364.015C130.877 368.415 134.577 372.415 139.077 374.615C139.677 374.915 143.177 376.315 141.377 374.315C139.977 372.615 138.277 371.215 136.877 369.515C130.177 361.015 127.777 348.615 134.677 339.315C138.777 334.215 145.877 331.315 151.577 335.515C154.277 337.715 155.777 341.515 153.777 344.815C152.677 346.415 150.177 347.215 151.477 349.615C153.377 352.615 157.377 351.815 159.777 350.115C164.977 346.115 165.177 338.815 162.477 333.115C162.077 332.415 161.677 331.815 161.277 331.115Z" fill="black"/>
<path fill-rule="evenodd" clip-rule="evenodd" d="M119.078 324.915C120.878 316.915 119.378 306.815 112.278 302.315C110.778 301.415 106.078 299.715 106.078 303.115C106.078 303.915 106.278 304.715 106.278 305.515C105.978 313.515 96.8782 320.715 90.2782 314.415C86.5782 310.715 86.1782 304.515 88.0782 299.815C91.8782 291.315 100.978 288.715 109.078 291.215C119.978 295.115 126.078 306.615 125.178 318.415C124.378 328.815 120.378 339.115 120.778 348.215C120.778 351.015 116.178 337.715 119.078 324.915Z" fill="black"/>
<path fill-rule="evenodd" clip-rule="evenodd" d="M128.979 370.215C123.079 364.815 118.779 357.915 116.079 350.115C113.479 342.415 113.779 334.215 115.079 326.215C115.479 323.215 116.079 320.115 116.279 317.115C116.279 315.915 116.279 314.715 116.079 313.515C115.879 312.515 115.479 311.515 114.979 310.615C115.679 311.415 116.079 312.415 116.379 313.415C116.679 314.615 116.879 315.815 116.879 317.115C116.979 320.215 116.579 323.315 116.279 326.415C115.579 334.215 115.179 342.015 117.579 349.615C119.979 357.215 123.779 364.315 128.979 370.215Z" fill="black"/>
<path fill-rule="evenodd" clip-rule="evenodd" d="M153.979 304.015C150.979 306.415 149.379 312.015 145.779 314.415C144.479 315.315 143.079 316.215 141.579 316.715C139.979 317.315 138.379 317.715 136.779 318.215C133.979 319.315 131.679 320.715 129.879 323.415C129.279 324.415 128.779 325.515 128.379 326.815C128.579 324.915 128.779 323.215 128.979 321.615C130.079 315.615 131.979 309.215 136.479 304.915C139.879 301.915 144.279 300.815 148.679 301.715C150.379 302.215 152.379 302.915 153.979 304.015Z" fill="black"/>
<path fill-rule="evenodd" clip-rule="evenodd" d="M130.777 319.715C132.377 317.515 133.877 315.215 136.077 313.615C136.677 313.215 137.377 312.815 137.977 312.515C139.077 312.015 140.277 311.715 141.277 311.115C143.477 309.915 139.277 311.515 139.177 310.715C139.177 309.015 144.577 308.715 145.377 306.915L138.277 308.715C138.577 308.115 138.877 307.515 139.277 307.015L140.277 305.415C139.877 305.415 139.777 305.515 139.477 305.715C137.977 306.615 137.177 308.815 136.377 310.315C135.977 311.015 135.577 311.715 135.077 312.315C133.277 314.615 131.877 317.015 130.777 319.715Z" fill="black"/>
<path fill-rule="evenodd" clip-rule="evenodd" d="M162.079 339.815C162.479 340.815 162.579 342.015 162.379 343.215C162.079 344.415 161.579 345.615 160.779 346.715C159.979 347.715 159.079 348.615 157.979 349.015C157.779 349.115 157.579 349.215 157.379 349.215C157.079 349.315 156.879 349.315 156.579 349.315C156.179 349.315 155.779 349.215 155.379 349.015C155.679 349.115 156.179 349.115 156.579 349.015C156.779 348.915 157.079 348.815 157.279 348.715C157.479 348.615 157.579 348.515 157.779 348.415C158.679 347.815 159.479 347.015 160.179 346.215C160.979 345.315 161.679 344.315 162.079 343.215C162.479 342.015 162.479 340.815 162.079 339.815Z" fill="black"/>
<path fill-rule="evenodd" clip-rule="evenodd" d="M92.2773 297.015C90.7773 298.715 89.6773 300.715 89.1773 303.015C88.8773 304.615 88.8773 306.315 89.2773 307.915C89.3773 308.515 89.5773 309.015 89.7773 309.515C90.3773 311.015 91.3773 312.415 92.7773 313.315C92.8773 313.415 92.9773 313.415 92.9773 313.415C93.4773 313.715 93.9773 313.915 94.5773 314.115C95.0773 314.215 95.6773 314.315 96.2773 314.315C95.7773 314.315 95.1773 314.115 94.7773 313.815C94.3773 313.515 93.9773 313.115 93.6773 312.715C93.6773 312.615 93.5773 312.615 93.5773 312.515C92.7773 311.415 92.0773 310.115 91.5773 308.815C91.3773 308.415 91.1773 307.915 90.9773 307.515C90.4773 306.115 90.1773 304.715 90.1773 303.215C89.9773 300.815 90.7773 298.715 92.2773 297.015Z" fill="black"/>
<path fill-rule="evenodd" clip-rule="evenodd" d="M143.777 273.815C141.977 277.715 142.477 284.115 140.177 288.415C139.377 290.015 138.477 291.615 137.377 292.915C136.277 294.315 134.977 295.615 133.877 297.015C131.877 299.615 130.377 302.215 129.777 305.815C129.577 307.115 129.477 308.515 129.577 310.015C129.077 308.115 128.677 306.315 128.377 304.515C127.377 298.015 126.877 290.715 129.277 284.115C131.177 279.315 134.577 275.915 138.477 274.515C140.177 273.915 142.077 273.515 143.777 273.815Z" fill="black"/>
<path fill-rule="evenodd" clip-rule="evenodd" d="M129.279 301.615C129.879 298.615 130.379 295.515 131.779 292.815C132.179 292.115 132.579 291.315 133.079 290.715C133.879 289.615 134.779 288.715 135.379 287.615C136.879 285.215 133.879 289.015 133.479 288.315C132.979 286.615 137.379 283.415 137.479 281.315L132.079 286.815C132.079 286.015 132.279 285.315 132.379 284.615L132.679 282.515C132.379 282.715 132.279 282.915 132.079 283.215C131.079 284.915 131.079 287.515 130.879 289.415C130.779 290.315 130.679 291.215 130.379 292.115C129.779 295.215 129.379 298.315 129.279 301.615Z" fill="black"/>
<path fill-rule="evenodd" clip-rule="evenodd" d="M120.479 207.215C119.279 232.515 108.379 267.315 120.479 291.115C132.579 267.315 121.579 232.615 120.479 207.215Z" fill="black"/>
<path fill-rule="evenodd" clip-rule="evenodd" d="M120.477 207.215C120.077 234.715 116.177 263.815 120.477 291.115C124.677 263.815 120.877 234.815 120.477 207.215Z" fill="black"/>
</svg>
