<svg width="98" height="98" viewBox="0 0 98 98" fill="none" xmlns="http://www.w3.org/2000/svg">
<g clip-path="url(#clip0_106_1486)">
<path d="M62.5147 35.4846C73.9506 46.9324 73.7937 65.2862 62.5836 76.5585C62.5625 76.5814 62.5377 76.6063 62.5147 76.6293L49.6522 89.4918C38.3075 100.836 19.8504 100.835 8.50751 89.4918C-2.83714 78.1491 -2.83714 59.6898 8.50751 48.3471L15.6098 41.2448C17.4933 39.3613 20.7368 40.6131 20.8341 43.2748C20.9581 46.6669 21.5664 50.0749 22.6888 53.366C23.0689 54.4803 22.7973 55.713 21.9647 56.5456L19.4598 59.0505C14.0954 64.4149 13.9272 73.1495 19.2387 78.5663C24.6027 84.0365 33.4192 84.0691 38.8243 78.6639L51.6868 65.8033C57.0828 60.4074 57.0602 51.6858 51.6868 46.3125C50.9784 45.6054 50.2649 45.0561 49.7075 44.6723C49.3132 44.4015 48.9876 44.0423 48.7568 43.6234C48.5259 43.2045 48.3961 42.7374 48.3778 42.2594C48.302 40.2368 49.0186 38.1526 50.6169 36.5544L54.6467 32.5243C55.7035 31.4676 57.3613 31.3378 58.5866 32.193C59.99 33.1729 61.3044 34.2743 62.5147 35.4846ZM89.4905 8.50742C78.1476 -2.83569 59.6905 -2.83722 48.3458 8.50742L35.4833 21.3699C35.4604 21.3929 35.4355 21.4178 35.4144 21.4407C24.2045 32.713 24.0474 51.0668 35.4833 62.5146C36.6936 63.7248 38.0079 64.8262 39.4112 65.806C40.6366 66.6612 42.2945 66.5313 43.3511 65.4747L47.381 61.4446C48.9792 59.8464 49.6958 57.7622 49.62 55.7396C49.6017 55.2616 49.4719 54.7945 49.2411 54.3756C49.0102 53.9567 48.6846 53.5975 48.2903 53.3267C47.733 52.943 47.0194 52.3936 46.311 51.6866C40.9377 46.3132 40.9151 37.5916 46.311 32.1957L59.1735 19.3351C64.5786 13.93 73.395 13.9625 78.7591 19.4327C84.0707 24.8495 83.9026 33.5841 78.5381 38.9485L76.0331 41.4534C75.2005 42.286 74.9289 43.5187 75.309 44.6331C76.4314 47.9241 77.0397 51.3321 77.1638 54.7242C77.2612 57.3859 80.5046 58.6377 82.388 56.7542L89.4903 49.6519C100.835 38.3094 100.835 19.8502 89.4905 8.50742Z" fill="#E64210"/>
</g>
<defs>
<clipPath id="clip0_106_1486">
<rect width="98" height="98" fill="white"/>
</clipPath>
</defs>
</svg>
