<svg width="100" height="100" viewBox="0 0 100 100" fill="none" xmlns="http://www.w3.org/2000/svg">
<path d="M97.5337 77.9841L75.0068 57.5021C73.942 56.5343 72.5427 56.0181 71.1044 56.0626C69.6661 56.107 68.3014 56.7086 67.2984 57.7404L54.0371 71.3784C50.8451 70.7689 44.4279 68.7683 37.8222 62.1793C31.2166 55.5681 29.216 49.1342 28.6231 45.9644L42.25 32.6976C43.2831 31.6953 43.8856 30.3303 43.93 28.8916C43.9745 27.4529 43.4575 26.0534 42.4883 24.9891L22.0119 2.46782C21.0423 1.40025 19.6948 0.752694 18.2555 0.662672C16.8161 0.57265 15.3984 1.04726 14.3034 1.98569L2.27798 12.2987C1.31989 13.2603 0.748033 14.5401 0.670896 15.8953C0.587771 17.2807 -0.997145 50.0984 24.4502 75.5569C46.6501 97.7512 74.4582 99.3749 82.1168 99.3749C83.2362 99.3749 83.9234 99.3417 84.1062 99.3306C85.4613 99.2548 86.7403 98.6804 87.6972 97.718L98.0047 85.687C98.9469 84.5955 99.425 83.1789 99.337 81.7397C99.249 80.3005 98.6018 78.9527 97.5337 77.9841Z" fill="#E64210"/>
</svg>
